Coordinates
version=1
nRows=12
nColumns=24
inDegrees=yes

Units are S.I. units (second, meters, Newtons, ...)
Angles are in degrees.

endheader
time	pelvis_tilt	pelvis_list	pelvis_rotation	pelvis_tx	pelvis_ty	pelvis_tz	hip_flexion_r	hip_adduction_r	hip_rotation_r	knee_angle_r	ankle_angle_r	subtalar_angle_r	mtp_angle_r	hip_flexion_l	hip_adduction_l	hip_rotation_l	knee_angle_l	ankle_angle_l	subtalar_angle_l	mtp_angle_l	lumbar_extension	lumbar_bending	lumbar_rotation
      3.91000000	      2.47376670	     -3.99013144	      1.27540861	      0.01944090	      1.00710830	     -0.05076665	     14.28726537	     -6.67316687	    -18.56674628	    -61.00962939	     12.42041939	      0.00000000	      0.00000000	      6.80344018	     -2.58198738	     -7.60302432	    -18.52363536	     15.34876349	      0.00000000	      0.00000000	    -19.29042816	      1.53888511	     -4.13601740
      3.92000000	      2.30280640	     -4.24795160	      1.24916802	      0.01814771	      1.00786777	     -0.05191239	     15.29917127	     -6.43352747	    -18.90416660	    -60.14895807	     12.70828586	      0.00000000	      0.00000000	      6.20411117	     -2.76606116	     -7.75996812	    -17.79279659	     15.34188625	      0.00000000	      0.00000000	    -19.20104655	      1.78859760	     -4.05738500
      3.93000000	      2.14551485	     -4.44455539	      1.19846494	      0.01678099	      1.00850829	     -0.05297823	     16.25427580	     -6.22327328	    -19.20858341	    -59.10035767	     13.02393509	      0.00000000	      0.00000000	      5.61293117	     -2.88715768	     -7.90179380	    -17.13033898	     15.39123997	      0.00000000	      0.00000000	    -19.15656403	      1.96633638	     -3.96862407
      3.94000000	      1.99769022	     -4.52604533	      1.12560886	      0.01531907	      1.00903436	     -0.05398310	     17.15883622	     -6.10863598	    -19.48179500	    -57.87142097	     13.26055429	      0.00000000	      0.00000000	      5.09576934	     -2.88918918	     -7.95739253	    -16.66528432	     15.50365641	      0.00000000	      0.00000000	    -19.13751378	      2.00674940	     -3.91764459
      3.95000000	      1.80169956	     -4.78487602	      1.06448002	      0.01392322	      1.00938404	     -0.05475129	     18.07017794	     -5.72922058	    -19.73538151	    -56.49442942	     13.72051002	      0.00000000	      0.00000000	      4.42273252	     -3.09370598	     -8.24600638	    -15.69528063	     15.47945284	      0.00000000	      0.00000000	    -19.05937172	      2.24104898	     -3.83976609
      3.96000000	      1.69871588	     -4.93750373	      0.95172882	      0.01247049	      1.00978681	     -0.05541497	     18.81477829	     -5.42417779	    -19.94398633	    -54.88710967	     13.99446697	      0.00000000	      0.00000000	      3.69367096	     -3.18797733	     -8.52354906	    -14.86205085	     15.42556209	      0.00000000	      0.00000000	    -19.10643909	      2.33728909	     -3.72742740
      3.97000000	      1.53747346	     -4.99412895	      0.86293568	      0.01100651	      1.00990801	     -0.05611793	     19.57749221	     -5.24179731	    -20.21291836	    -53.17335997	     14.12063117	      0.00000000	      0.00000000	      3.05471613	     -3.16720602	     -8.66334636	    -14.08817663	     15.50631206	      0.00000000	      0.00000000	    -19.08828183	      2.34256102	     -3.69152339
      3.98000000	      1.33137077	     -5.02327258	      0.77487328	      0.00957701	      1.00981849	     -0.05673387	     20.31985447	     -5.07149667	    -20.51254202	    -51.29831467	     14.14095240	      0.00000000	      0.00000000	      2.43883830	     -3.11666198	     -8.79431188	    -13.26479206	     15.59877517	      0.00000000	      0.00000000	    -19.01325363	      2.31615370	     -3.67652318
      3.99000000	      1.29944550	     -5.09819062	      0.63679768	      0.00819693	      1.00998222	     -0.05714996	     20.75839334	     -4.77931086	    -20.79622342	    -49.12976288	     13.92619342	      0.00000000	      0.00000000	      1.55916526	     -3.12289834	     -9.06949419	    -12.29282227	     15.39399663	      0.00000000	      0.00000000	    -19.14582469	      2.31350598	     -3.57106537
      4.00000000	      1.08058914	     -5.02788042	      0.55223725	      0.00679471	      1.00959728	     -0.05763167	     21.38616524	     -4.68433117	    -21.16788474	    -46.96727653	     13.69558113	      0.00000000	      0.00000000	      0.93456882	     -2.95881031	     -9.13947059	    -11.43542144	     15.51258795	      0.00000000	      0.00000000	    -19.06171622	      2.17422448	     -3.57221220
      4.01000000	      1.12092452	     -5.03831098	      0.43562461	      0.00547363	      1.00964059	     -0.05794806	     21.57429134	     -4.43201255	    -21.56746456	    -44.45737780	     13.21625999	      0.00000000	      0.00000000	     -0.06356667	     -2.88849619	     -9.35168684	    -10.38960042	     15.31173326	      0.00000000	      0.00000000	    -19.28655467	      2.10540663	     -3.49169396
      4.02000000	      0.82716907	     -4.75075898	      0.29793719	      0.00394791	      1.00877059	     -0.05817932	     22.22124677	     -4.50409286	    -21.86529656	    -42.13725675	     13.05953385	      0.00000000	      0.00000000	     -0.43893086	     -2.51640939	     -9.31123412	     -9.91621498	     15.54007600	      0.00000000	      0.00000000	    -19.13716521	      1.69875357	     -3.51362724
